# xmcd CD database file
#
# Track frame offsets:
#	150
#	29920
#	52470
#	76110
#	97995
#	115905
#	136237
#	155822
#	175260
#	196095
#
# Disc length: 2834 seconds
#
# Revision: 0
# Processed by: cddbd v1.5.2PL0 Copyright (c) Steve Scherf et al.
# Submitted via: CDex 1.51
#
DISCID=880b100a
DTITLE=Michael Unger - Talking Sax
DYEAR=1900
DGENRE=Jazz
TTITLE0=Tunnel of Inspiration
TTITLE1=Endless Affair
TTITLE2=By, By its allright
TTITLE3=Vnice
TTITLE4=Midnight Sun
TTITLE5=NYC Jam
TTITLE6=Funky Stuff
TTITLE7=For You
TTITLE8=Peter Gunn
TTITLE9=Tunnel of Inspiration - Part Two
EXTD=
EXTT0=
EXTT1=
EXTT2=
EXTT3=
EXTT4=
EXTT5=
EXTT6=
EXTT7=
EXTT8=
EXTT9=
PLAYORDER=
